<svg xmlns="http://www.w3.org/2000/svg" x="0px" y="0px" width="100" height="100" viewBox="0 0 32 32">
    <path
        d="M 2 5 L 2 8 L 2 26 L 12.380859 26 C 13.373859 26 14.280609 26.561219 14.724609 27.449219 L 15 28 L 17 28 L 17.275391 27.449219 C 17.719391 26.561219 18.626141 26 19.619141 26 L 30 26 L 30 8 L 30 5 L 28 5 L 20 5 C 18.460975 5 17.061666 5.5840771 16 6.5371094 C 14.938334 5.5840771 13.539025 5 12 5 L 4 5 L 2 5 z M 4 8 L 12 8 C 13.201883 8 14.266738 8.5416286 15 9.3808594 L 15 11.5 L 15 25 L 6 25 C 4.895 25 4 24.105 4 23 L 4 8 z M 20 8 L 28 8 L 28 23 C 28 24.105 27.105 25 26 25 L 17 25 L 17 11 L 17 9.3808594 C 17.733262 8.5416286 18.798117 8 20 8 z"
        fill="white">
    </path>
</svg>