<svg xmlns="http://www.w3.org/2000/svg" x="0px" y="0px" width="100" height="100" viewBox="0 0 50 50">
    <path
        d="M 12.5 11 C 10.57 11 9 12.57 9 14.5 L 9 35.5 C 9 37.43 10.57 39 12.5 39 L 37.5 39 C 39.43 39 41 37.43 41 35.5 L 41 17.5 C 41 15.57 39.43 14 37.5 14 L 22.5 14 C 21.962 14 21.429 13.822 21 13.5 L 18.599609 11.699219 C 17.998609 11.248219 17.253 11 16.5 11 L 12.5 11 z M 12.5 12 L 16.5 12 C 17.038 12 17.57 12.178 18 12.5 L 20.400391 14.300781 C 21.001391 14.751781 21.747 15 22.5 15 L 37.5 15 C 38.878 15 40 16.122 40 17.5 L 40 19 L 10 19 L 10 14.5 C 10 13.122 11.122 12 12.5 12 z M 10 20 L 40 20 L 40 35.5 C 40 36.878 38.878 38 37.5 38 L 12.5 38 C 11.122 38 10 36.878 10 35.5 L 10 20 z"
        fill="white">
    </path>
</svg>