<svg xmlns="http://www.w3.org/2000/svg" x="0px" y="0px" width="100" height="100" viewBox="0 0 50 50">
    <path
        d="M33.5,11h-20c-1.93,0-3.5,1.57-3.5,3.5v6.996C10,21.501,10.021,22,10.486,22c0.805,0,2.751-3,5.904-3	c3.251,0,5.61,2.523,5.61,6s-2.359,6-5.61,6c-3.153,0-5.099-3-5.904-3C10.021,28,10,28.499,10,28.504V35.5c0,1.93,1.57,3.5,3.5,3.5	h20c1.93,0,3.5-1.57,3.5-3.5v-6.996C37,27.675,37.66,27,38.471,27c1.685,0,2.762,3,5.833,3C46.981,30,49,27.851,49,25	s-2.019-5-4.696-5c-3.071,0-4.148,3-5.833,3C37.66,23,37,22.325,37,21.496V14.5C37,12.57,35.43,11,33.5,11z M33.5,10	c2.481,0,4.5,2.019,4.5,4.5v6.996C38,21.769,38.216,22,38.471,22c0.945,0,2.47-3,5.833-3C47.551,19,50,21.58,50,25s-2.449,6-5.696,6	c-3.363,0-4.888-3-5.833-3C38.216,28,38,28.231,38,28.504V35.5c0,2.481-2.019,4.5-4.5,4.5h-20C11.019,40,9,37.981,9,35.5v-6.996	C9,27.765,9.556,27,10.486,27c1.489,0,3.044,3,5.904,3c2.714,0,4.61-2.056,4.61-5s-1.896-5-4.61-5c-2.86,0-4.414,3-5.904,3	C9.556,23,9,22.235,9,21.496V14.5c0-2.481,2.019-4.5,4.5-4.5H33.5z"
        fill='white'></path>
</svg>