<svg xmlns="http://www.w3.org/2000/svg" x="0px" y="0px" width="100" height="100" viewBox="0 0 64 64">
    <path fill='white'
        d="M44.981,57.959c-3.86,0-7-3.14-7-7s3.14-7,7-7s7,3.14,7,7S48.84,57.959,44.981,57.959z M44.981,47.959c-1.654,0-3,1.346-3,3s1.346,3,3,3c1.654,0,3-1.346,3-3S46.635,47.959,44.981,47.959z">
    </path>
    <path fill='white'
        d="M13.994,40.008c-3.86,0-7-3.14-7-7s3.14-7,7-7s7,3.14,7,7S17.854,40.008,13.994,40.008z M13.994,30.008c-1.654,0-3,1.346-3,3c0,1.654,1.346,3,3,3s3-1.346,3-3C16.994,31.354,15.648,30.008,13.994,30.008z">
    </path>
    <path
        d="M37.084,32.855l6.351,11c0.552,0.957,0.186,2.117-0.732,2.732c-0.97,0.65-2.361-0.09-2.732-0.732l-6.351-11H20.918	c-1.104,0-2-0.896-2-2s0.896-2,2-2h12.701l6.452-11.175c0.553-0.956,1.773-1.286,2.732-0.732c0.957,0.552,1.284,1.775,0.732,2.732	L37.084,32.855z">
    </path>
    <path fill='white'
        d="M45.466,22.053c-3.86,0-7-3.14-7-7s3.14-7,7-7s7,3.14,7,7S49.326,22.053,45.466,22.053z M45.466,12.053c-1.654,0-3,1.346-3,3s1.346,3,3,3c1.654,0,3-1.346,3-3S47.12,12.053,45.466,12.053z"
        fill='white'></path>
</svg>